# Blender v2.77 (sub 0) OBJ File: 'Ship_1.blend'
# www.blender.org
mtllib boat.mtl
o Cylinder.002_Cylinder.000
v -0.843310 1.391686 -0.507693
v 0.839867 2.810101 -0.514246
v 0.008738 1.391762 -0.491793
v 0.882412 2.249230 -0.400423
v 0.008746 2.115371 -0.095900
v -0.406826 2.771031 -0.470161
v -0.864150 1.757306 -0.407104
v 0.434762 1.420629 -0.423774
v -0.864916 2.249234 -0.400423
v 0.881642 1.757306 -0.407104
v 0.008746 2.473436 -0.215902
v 0.008746 1.757306 -0.147814
v -0.425006 2.115371 -0.190401
v 0.442499 2.115371 -0.190401
v 0.445194 1.757306 -0.225017
v -0.427702 1.757306 -0.225017
v -0.422311 2.473436 -0.292252
v 0.439803 2.473436 -0.292252
v 0.860786 1.391686 -0.508587
v -0.822391 2.810100 -0.514246
v 0.002286 2.804537 -0.517792
v 0.832314 2.251522 -0.430950
v 0.008730 2.115357 -0.142342
v -0.417286 1.420629 -0.423774
v -0.812010 1.778687 -0.434952
v 0.424303 2.771031 -0.470161
v -0.814850 2.251524 -0.430949
v 0.829471 1.778687 -0.434952
v 0.008730 2.452028 -0.255173
v 0.008730 1.778687 -0.191154
v -0.399106 2.115357 -0.231196
v 0.416566 2.115357 -0.231196
v 0.419100 1.778687 -0.263744
v -0.401640 1.778687 -0.263744
v -0.396571 2.452028 -0.326962
v 0.414032 2.452028 -0.326962
vt 0.529957 0.277121
vt 0.529991 0.278073
vt 0.531192 0.278138
vt 0.531195 0.277051
vt 0.529967 0.279783
vt 0.531159 0.279772
vt 0.531175 0.278978
vt 0.530008 0.278946
vt 0.532342 0.278993
vt 0.532349 0.279831
vt 0.533662 0.279884
vt 0.533670 0.278675
vt 0.531136 0.280924
vt 0.532424 0.280791
vt 0.533718 0.280786
vt 0.528653 0.279784
vt 0.528693 0.278575
vt 0.528561 0.280682
vt 0.529854 0.280740
vt 0.528703 0.277123
vt 0.532394 0.278122
vt 0.532467 0.277172
vt 0.532394 0.278122
vt 0.533718 0.277225
vt 0.533671 0.278647
vt 0.531192 0.278138
vt 0.529991 0.278073
vt 0.529967 0.279783
vt 0.530008 0.278946
vt 0.531175 0.278978
vt 0.531159 0.279772
vt 0.533662 0.279884
vt 0.532349 0.279831
vt 0.532342 0.278993
vt 0.528653 0.279784
vt 0.528693 0.278547
vn -0.051300 0.606300 0.793500
vn -0.192300 -0.117000 0.974300
vn 0.413500 -0.043200 0.909500
vn 0.192300 -0.117000 0.974300
vn 0.028900 -0.611500 0.790700
vn 0.260400 -0.389300 0.883500
vn -0.413500 -0.043200 0.909500
vn -0.259700 -0.388400 0.884100
vn -0.028900 -0.611500 0.790700
vn -0.233000 0.327000 0.915800
vn -0.185400 0.291400 0.938500
vn -0.351000 0.258600 0.900000
vn 0.050500 0.607000 0.793100
vn 0.185400 0.291400 0.938500
vn -0.214600 -0.240000 -0.946800
vn 0.233000 0.327000 0.915800
vn 0.046600 -0.515800 -0.855400
vn 0.192300 0.117000 -0.974300
vn -0.414900 0.041200 -0.908900
vn -0.192300 0.117000 -0.974300
vn -0.022800 0.525500 -0.850500
vn -0.273000 0.272200 -0.922700
vn 0.414900 0.041200 -0.908900
vn 0.272200 0.271300 -0.923200
vn 0.022800 0.525500 -0.850500
vn 0.214600 -0.240000 -0.946800
vn 0.185400 -0.291400 -0.938500
vn -0.045900 -0.516500 -0.855100
vn -0.185400 -0.291400 -0.938500
vn -0.497300 0.007700 -0.867600
vn 0.497100 0.007700 -0.867700
vn -0.523700 0.198100 -0.828500
vn 0.511200 -0.133500 -0.849000
vn 0.351000 0.258600 0.900000
vn 0.348100 -0.258900 -0.901000
vn -0.348100 -0.258900 -0.901000
vn -0.511500 -0.133500 -0.848900
vn 0.523900 0.199900 -0.828000
usemtl Material.001
s off
f 6/1/1 17/2/1 11/3/1 21/4/1
f 16/5/2 12/6/2 5/7/2 13/8/2
f 14/9/3 15/10/3 10/11/3 4/12/3
f 5/7/4 12/6/4 15/10/4 14/9/4
f 12/6/5 3/13/5 8/14/5 15/10/5
f 15/10/6 8/14/6 19/15/6 10/11/6
f 7/16/7 16/5/7 13/8/7 9/17/7
f 1/18/8 24/19/8 16/5/8 7/16/8
f 24/19/9 3/13/9 12/6/9 16/5/9
f 20/20/10 9/17/10 17/2/10 6/1/10
f 17/2/11 13/8/11 5/7/11 11/3/11
f 9/17/12 13/8/12 17/2/12
f 11/3/13 18/21/13 26/22/13 21/4/13
f 5/7/14 14/9/14 18/21/14 11/3/14
f 36/23/15 26/22/15 2/24/15 22/25/15
f 18/21/16 4/12/16 2/24/16 26/22/16
f 29/26/17 35/27/17 6/1/17 21/4/17
f 34/28/18 31/29/18 23/30/18 30/31/18
f 28/32/19 33/33/19 32/34/19 22/25/19
f 33/33/20 30/31/20 23/30/20 32/34/20
f 8/14/21 3/13/21 30/31/21 33/33/21
f 19/15/22 8/14/22 33/33/22 28/32/22
f 25/35/23 27/36/23 31/29/23 34/28/23
f 1/18/24 25/35/24 34/28/24 24/19/24
f 24/19/25 34/28/25 30/31/25 3/13/25
f 35/27/26 27/36/26 20/20/26 6/1/26
f 23/30/27 31/29/27 35/27/27 29/26/27
f 29/26/28 21/4/28 26/22/28 36/23/28
f 23/30/29 29/26/29 36/23/29 32/34/29
f 7/16/30 9/17/30 27/36/30 25/35/30
f 22/25/31 4/12/31 10/11/31 28/32/31
f 7/16/32 25/35/32 1/18/32
f 4/12/33 22/25/33 2/24/33
f 14/9/34 4/12/34 18/21/34
f 31/29/35 27/36/35 35/27/35
f 32/34/36 36/23/36 22/25/36
f 27/36/37 9/17/37 20/20/37
f 28/32/38 10/11/38 19/15/38
o Cylinder.001_Cylinder.002
v -0.050239 -0.008365 -1.630981
v -0.050239 0.830141 -1.630981
v -0.050239 -0.008365 -1.919598
v -0.050239 0.830141 -1.778780
v 0.025573 -0.008365 -1.630981
v 0.025573 0.830141 -1.630981
v 0.025573 -0.008365 -1.919598
v 0.025573 0.830141 -1.778780
v -0.050239 0.568011 -1.630981
v -0.050239 0.568011 -1.919598
v 0.025573 0.568011 -1.919598
v 0.025573 0.568011 -1.630981
v -0.033587 0.482718 -2.192827
v -0.033587 -0.008365 -2.192827
v 0.008921 0.482718 -2.192827
v 0.008921 -0.008365 -2.192827
v -0.050239 0.276484 -1.919598
v 0.025573 0.276484 -1.919598
v 0.025573 0.276484 -1.630981
v -0.050239 0.276484 -1.630981
v -0.033587 0.233838 -2.192827
v 0.008921 0.233838 -2.192827
vt 0.530315 0.628584
vt 0.529722 0.629466
vt 0.529582 0.629471
vt 0.528979 0.628584
vt 0.529539 0.629530
vt 0.529639 0.629548
vt 0.529634 0.629553
vt 0.529592 0.629663
vt 0.528707 0.630489
vt 0.528561 0.629014
vt 0.529847 0.629706
vt 0.529833 0.629698
vt 0.529844 0.629686
vt 0.529853 0.629700
vt 0.530811 0.629813
vt 0.530328 0.630899
vt 0.529753 0.629662
vt 0.529784 0.629612
vt 0.529662 0.629561
vt 0.529655 0.629571
vt 0.529691 0.629581
vt 0.529684 0.629589
vn -1.000000 0.000000 0.000000
vn 0.000000 -1.000000 0.000000
vn 1.000000 0.000000 0.000000
vn 0.000000 1.000000 0.000000
vn 0.000000 0.000000 1.000000
vn 0.000000 0.473200 -0.880900
vn 0.000000 0.000000 -1.000000
vn -0.998100 -0.000000 -0.060800
vn 0.000000 0.954600 -0.298000
vn 0.998100 0.000000 -0.060800
usemtl Material.001
s off
f 56/37/39 53/38/39 39/39/39 37/40/39
f 43/41/40 39/39/40 50/42/40 52/43/40
f 54/44/41 55/45/41 41/46/41 43/41/41
f 37/40/40 39/39/40 43/41/40 41/46/40
f 42/47/42 44/48/42 40/49/42 38/50/42
f 42/47/43 38/50/43 45/51/43 48/52/43
f 44/48/41 42/47/41 48/52/41 47/53/41
f 40/49/44 44/48/44 47/53/44 46/54/44
f 38/50/39 40/49/39 46/54/39 45/51/39
f 57/55/45 58/56/45 52/43/45 50/42/45
f 53/38/46 46/54/46 49/57/46 57/55/46
f 46/54/47 47/53/47 51/58/47 49/57/47
f 54/44/48 43/41/48 52/43/48 58/56/48
f 47/53/48 54/44/48 58/56/48 51/58/48
f 39/39/46 53/38/46 57/55/46 50/42/46
f 49/57/45 51/58/45 58/56/45 57/55/45
f 47/53/41 48/52/41 55/45/41 54/44/41
f 45/51/39 46/54/39 53/38/39 56/37/39
o Cylinder_Cylinder.001
v -0.000167 2.940940 -0.544638
v -0.000167 0.764731 -0.493767
v -0.035108 2.940940 -0.564811
v -0.079163 0.764731 -0.539376
v -0.035108 2.940940 -0.605157
v -0.079163 0.764731 -0.630592
v -0.000167 2.940940 -0.625330
v -0.000167 0.764731 -0.676200
v 0.034774 2.940940 -0.605157
v 0.078828 0.764731 -0.630592
v 0.034774 2.940940 -0.564811
v 0.078828 0.764731 -0.539376
v -0.876081 2.803779 -0.502590
v -0.876081 2.833632 -0.505985
v -0.876081 2.803779 -0.545036
v -0.876081 2.833632 -0.548547
v 0.893573 2.803779 -0.502590
v 0.893573 2.833632 -0.505985
v 0.893573 2.803779 -0.545036
v 0.893573 2.833632 -0.548547
v 0.893573 1.401779 -0.513258
v 0.893573 1.371926 -0.518802
v 0.893573 1.401779 -0.467780
v 0.893573 1.371926 -0.473285
v -0.876081 1.401779 -0.513258
v -0.876081 1.371926 -0.518802
v -0.876081 1.401779 -0.467780
v -0.876081 1.371926 -0.473285
v 0.741082 1.001057 -1.686922
v 0.815808 1.001057 0.305282
v 0.618203 0.402067 -1.686922
v 0.680715 0.402067 0.305282
v 0.295857 -0.008365 -1.686922
v 0.354246 -0.008365 0.305282
v 0.934600 1.001057 -0.508229
v 0.811960 0.402067 -0.508229
v 0.457539 -0.008365 -0.508229
v 0.284345 -0.008365 0.925159
v 0.489739 0.479196 1.110892
v 0.555213 1.057297 1.103986
v 0.699125 1.001057 -1.635472
v 0.769661 1.001057 0.280494
v 0.882691 1.001057 -0.474887
v 0.523293 1.048552 1.048460
v 0.651440 0.863622 -1.611502
v 0.717214 0.863622 0.260523
v 0.823696 0.863622 -0.447500
v 0.487016 0.863622 1.027851
v -0.742428 1.001057 -1.686922
v -0.815842 1.001057 0.305282
v -0.619621 0.402067 -1.686922
v -0.680715 0.402067 0.305282
v -0.297275 -0.008365 -1.686922
v -0.354246 -0.008365 0.305282
v -0.934634 1.001057 -0.508229
v -0.811961 0.402067 -0.508229
v -0.457539 -0.008365 -0.508229
v -0.284345 -0.008365 0.925159
v -0.489739 0.479196 1.110892
v -0.555247 1.057297 1.103986
v -0.700471 1.001057 -1.635472
v -0.769695 1.001057 0.280494
v -0.882725 1.001057 -0.474887
v -0.523327 1.048552 1.048460
v -0.652785 0.863622 -1.611502
v -0.717248 0.863622 0.260523
v -0.823730 0.863622 -0.447500
v -0.487050 0.863622 1.027851
v -0.000673 1.001057 -1.686922
v -0.000017 1.133546 1.588123
v -0.000000 0.640392 1.600997
v 0.000000 -0.008365 1.229531
v -0.000017 1.119913 1.501559
v -0.000017 0.863622 1.455662
v -0.000673 0.863622 -1.611502
v -0.000673 1.017937 -1.636206
vt 0.054393 0.589549
vt 0.078420 0.589549
vt 0.078420 0.613576
vt 0.054393 0.613576
vt 0.054393 0.589549
vt 0.078420 0.589549
vt 0.078420 0.613576
vt 0.054393 0.613576
vt 0.054393 0.589549
vt 0.078420 0.589549
vt 0.078420 0.613576
vt 0.054393 0.613576
vt 0.054393 0.589549
vt 0.078420 0.589549
vt 0.078420 0.613576
vt 0.054393 0.613576
vt 0.066406 0.613576
vt 0.076810 0.607569
vt 0.076810 0.595556
vt 0.066406 0.589549
vt 0.056002 0.595556
vt 0.056002 0.607569
vt 0.054393 0.589549
vt 0.078420 0.589549
vt 0.078420 0.613576
vt 0.054393 0.613576
vt 0.054393 0.589549
vt 0.078420 0.589549
vt 0.078420 0.613576
vt 0.054393 0.613576
vt 0.066406 0.613576
vt 0.076810 0.607569
vt 0.076810 0.595556
vt 0.066406 0.589549
vt 0.056002 0.595556
vt 0.056002 0.607569
vt 0.054393 0.589549
vt 0.078420 0.589549
vt 0.078420 0.613576
vt 0.054393 0.613576
vt 0.054393 0.589549
vt 0.078420 0.589549
vt 0.078420 0.613576
vt 0.054393 0.613576
vt 0.054393 0.589549
vt 0.078420 0.589549
vt 0.078420 0.613576
vt 0.054393 0.613576
vt 0.054393 0.589549
vt 0.078420 0.589549
vt 0.078420 0.613576
vt 0.054393 0.613576
vt 0.054393 0.589549
vt 0.054393 0.613576
vt 0.078420 0.589549
vt 0.078420 0.613576
vt 0.054393 0.589549
vt 0.078420 0.589549
vt 0.078420 0.613576
vt 0.054393 0.613576
vt 0.054393 0.589549
vt 0.078420 0.589549
vt 0.078420 0.613576
vt 0.054393 0.613576
vt 0.054393 0.589549
vt 0.078420 0.589549
vt 0.078420 0.613576
vt 0.054393 0.613576
vt 0.054393 0.589549
vt 0.078420 0.589549
vt 0.078420 0.613576
vt 0.054393 0.613576
vt 0.054393 0.589549
vt 0.078420 0.589549
vt 0.078420 0.613576
vt 0.054393 0.613576
vt 0.516197 0.739088
vt 0.516575 0.744550
vt 0.515666 0.745081
vt 0.515016 0.740038
vt 0.515373 0.745426
vt 0.514740 0.740830
vt 0.515616 0.747987
vt 0.516382 0.748606
vt 0.516189 0.754199
vt 0.515528 0.749759
vt 0.516839 0.747923
vt 0.515801 0.751595
vt 0.513436 0.735187
vt 0.513200 0.737418
vt 0.512751 0.730176
vt 0.512744 0.732818
vt 0.514519 0.739827
vt 0.515817 0.747389
vt 0.515538 0.750189
vt 0.515294 0.744466
vt 0.513398 0.740417
vt 0.514425 0.744281
vt 0.515159 0.746872
vt 0.512734 0.735134
vt 0.515325 0.749003
vt 0.513342 0.738230
vt 0.512594 0.737712
vt 0.511426 0.737211
vt 0.512939 0.742135
vt 0.513485 0.742110
vt 0.514181 0.745803
vt 0.513385 0.745591
vt 0.513638 0.741902
vt 0.514498 0.745789
vt 0.514960 0.748139
vt 0.514436 0.749052
vt 0.513833 0.748608
vt 0.512921 0.739463
vt 0.513200 0.738998
vt 0.512233 0.739872
vt 0.513780 0.741843
vt 0.512981 0.739662
vt 0.514527 0.747917
vt 0.514246 0.745175
vt 0.514764 0.744771
vt 0.514351 0.741586
vt 0.514906 0.747342
vt 0.513547 0.739492
vt 0.490921 0.534821
vt 0.496942 0.539273
vt 0.484900 0.539273
vt 0.499788 0.547259
vt 0.482054 0.547259
vt 0.482851 0.566742
vt 0.480737 0.554628
vt 0.490913 0.566742
vt 0.501104 0.554628
vt 0.498975 0.566742
vt 0.542967 0.732422
vt 0.510872 0.706272
vt 0.575065 0.706272
vn 0.499900 -0.020200 -0.865800
vn 0.999800 -0.020200 0.000000
vn 0.499900 -0.020200 0.865800
vn -0.499900 -0.020200 0.865800
vn 0.000000 1.000000 0.000000
vn -0.999800 -0.020200 0.000000
vn -0.499900 -0.020200 -0.865800
vn 0.000000 -1.000000 0.000000
vn 1.000000 -0.000000 0.000000
vn 0.000000 0.116800 0.993200
vn -1.000000 -0.000000 0.000000
vn 0.000000 -0.113000 -0.993600
vn 0.000000 -0.182600 0.983200
vn 0.000000 0.181300 -0.983400
vn 0.966800 -0.208000 0.148600
vn 0.765000 -0.634500 0.110300
vn 0.598100 -0.437400 0.671500
vn 0.678300 -0.027900 0.734300
vn 0.766400 -0.631900 -0.115600
vn 0.967200 -0.198200 -0.158900
vn 0.946700 -0.159700 0.279700
vn 0.829500 -0.528600 0.180400
vn 0.000000 0.987800 -0.155600
vn -0.032800 0.996500 -0.076600
vn -0.919200 0.368900 -0.137900
vn -0.912100 0.287800 -0.292000
vn -0.914000 0.380900 0.139900
vn -0.641400 0.165700 -0.749100
vn -0.001500 -0.164300 -0.986400
vn 0.011600 0.987300 -0.158300
vn -0.966800 -0.208000 0.148600
vn -0.765000 -0.634500 0.110300
vn -0.598100 -0.437400 0.671500
vn -0.678300 -0.027900 0.734300
vn -0.766500 -0.631900 -0.114600
vn -0.967400 -0.198200 -0.157800
vn -0.946700 -0.159700 0.279700
vn -0.829500 -0.528600 0.180400
vn 0.032800 0.996500 -0.076600
vn 0.919200 0.368900 -0.137900
vn 0.912100 0.287800 -0.292000
vn 0.914200 0.380800 0.138900
vn 0.641400 0.165700 -0.749100
vn 0.001500 -0.164300 -0.986400
vn -0.011600 0.987300 -0.158300
vn 0.000000 0.000000 -1.000000
usemtl Material.001
s off
f 59/59/49 60/60/49 62/61/49 61/62/49
f 61/63/50 62/64/50 64/65/50 63/66/50
f 63/67/51 64/68/51 66/69/51 65/70/51
f 65/71/52 66/72/52 68/73/52 67/74/52
f 62/75/53 60/76/53 70/77/53 68/78/53 66/79/53 64/80/53
f 67/81/54 68/82/54 70/83/54 69/84/54
f 69/85/55 70/86/55 60/87/55 59/88/55
f 59/89/56 61/90/56 63/91/56 65/92/56 67/93/56 69/94/56
f 72/95/57 71/96/57 73/97/57 74/98/57
f 74/99/58 73/100/58 77/101/58 78/102/58
f 78/103/59 77/104/59 75/105/59 76/106/59
f 76/107/60 75/108/60 71/109/60 72/110/60
f 71/111/53 75/108/53 77/101/53 73/112/53
f 76/107/56 72/113/56 74/114/56 78/102/56
f 86/115/53 82/116/53 80/117/53 84/118/53
f 79/119/59 80/120/59 82/121/59 81/122/59
f 85/123/57 86/124/57 84/125/57 83/126/57
f 81/127/56 85/128/56 83/129/56 79/130/56
f 83/131/61 84/132/61 80/117/61 79/130/61
f 81/127/62 82/116/62 86/133/62 85/134/62
f 93/135/63 88/136/63 90/137/63 94/138/63
f 94/138/64 90/137/64 92/139/64 95/140/64
f 96/141/65 97/142/65 129/143/65 130/144/65
f 97/142/66 98/145/66 128/146/66 129/143/66
f 89/147/67 94/138/67 95/140/67 91/148/67
f 87/149/68 93/135/68 94/138/68 89/147/68
f 90/137/69 88/136/69 98/145/69 97/142/69
f 92/139/70 90/137/70 97/142/70 96/141/70
f 93/135/53 87/149/53 99/150/53 101/151/53
f 128/146/71 98/145/71 102/152/71 131/153/71
f 98/145/72 88/136/72 100/154/72 102/152/72
f 88/136/53 93/135/53 101/151/53 100/154/53
f 100/154/73 101/151/73 105/155/73 104/156/73
f 102/152/74 100/154/74 104/156/74 106/157/74
f 101/151/75 99/150/75 103/158/75 105/155/75
f 131/153/76 102/152/76 106/157/76 132/159/76
f 103/158/77 133/160/77 134/161/77 99/150/77
f 99/150/78 87/149/78 127/162/78 134/161/78
f 113/163/79 114/164/79 110/165/79 108/166/79
f 114/164/80 115/167/80 112/168/80 110/165/80
f 116/169/81 130/144/81 129/143/81 117/170/81
f 117/170/82 129/143/82 128/146/82 118/171/82
f 109/172/83 111/173/83 115/167/83 114/164/83
f 107/174/84 109/172/84 114/164/84 113/163/84
f 110/165/85 117/170/85 118/171/85 108/166/85
f 112/168/86 116/169/86 117/170/86 110/165/86
f 113/163/53 121/175/53 119/176/53 107/174/53
f 128/146/71 131/153/71 122/177/71 118/171/71
f 118/171/87 122/177/87 120/178/87 108/166/87
f 108/166/53 120/178/53 121/175/53 113/163/53
f 120/178/88 124/179/88 125/180/88 121/175/88
f 122/177/89 126/181/89 124/179/89 120/178/89
f 121/175/90 125/180/90 123/182/90 119/176/90
f 131/153/91 132/159/91 126/181/91 122/177/91
f 96/141/56 130/144/56 116/169/56
f 123/182/92 119/176/92 134/161/92 133/160/92
f 119/176/93 134/161/93 127/162/93 107/174/93
f 132/183/53 106/184/53 126/185/53
f 106/184/53 104/186/53 124/187/53 126/185/53
f 123/188/53 125/189/53 133/190/53
f 105/191/53 103/192/53 133/190/53
f 105/191/53 125/189/53 124/187/53 104/186/53
f 133/190/53 125/189/53 105/191/53
f 91/148/94 111/173/94 109/172/94 89/147/94
f 92/139/56 96/141/56 116/169/56 112/168/56
f 95/140/56 92/139/56 112/168/56 115/167/56
f 91/148/56 95/140/56 115/167/56 111/173/56
f 127/193/94 89/194/94 109/195/94
f 107/174/94 127/162/94 109/172/94
f 87/149/94 89/147/94 127/162/94
