# Blender v2.92.0 OBJ File: ''
# www.blender.org
mtllib raft_1.mtl
o Raft.002_Cylinder.002
v 1.329251 1.211799 -1.783544
v 1.329251 2.215647 -1.071740
v 1.313953 0.435312 -2.430892
v 1.355285 1.244236 -1.774812
v 1.375681 0.434660 -2.415405
v 1.365484 0.436287 -2.463947
v 1.355284 2.417214 -0.943531
v 1.355284 3.406342 -0.441618
v 1.329251 3.395783 -0.462828
v 1.342268 4.412408 -0.101068
v 1.355284 3.420347 -0.463911
v 1.355284 2.426363 -0.965668
v -1.269026 2.215670 -1.071733
v -1.242993 1.244236 -1.774812
v -1.232794 0.436287 -2.463947
v -1.269026 0.435486 -2.439055
v -1.269026 1.211799 -1.783544
v -1.222596 0.434660 -2.415405
v 1.365484 0.144647 -2.463947
v 1.313953 0.143672 -2.430892
v -1.232794 0.144647 -2.463947
v -1.269026 0.143845 -2.439055
v 1.375681 0.143019 -2.415405
v -1.242993 2.417214 -0.943531
v -1.242993 3.406342 -0.441618
v -1.269026 3.395760 -0.462839
v -1.256009 4.412408 -0.101068
v -1.242993 3.420347 -0.463911
v -1.242993 2.426363 -0.965668
v -1.222596 0.143019 -2.415405
v -0.670534 4.397187 -0.110548
v -0.688326 3.837954 0.234975
v 0.015131 3.837954 0.357693
v 0.015131 4.397187 -0.107692
v -0.688326 2.659894 0.234974
v 0.015131 2.659894 0.357692
v 0.015131 3.248924 0.518870
v -0.688326 3.248924 0.364912
v 0.718588 3.248924 0.294042
v 0.718588 2.659894 0.181631
v 1.386461 2.674793 -0.080187
v 1.386460 3.248924 -0.038648
v 0.015131 2.100661 -0.092783
v 0.718588 2.070864 -0.112925
v 1.386460 2.100661 -0.105002
v -1.356198 2.674794 -0.047314
v -1.356198 3.248924 0.009574
v -1.356197 2.100661 -0.097767
v -0.688326 2.070864 -0.109744
v -1.356198 4.397187 -0.117696
v -1.391783 3.837954 -0.036565
v 0.718588 3.837954 0.181632
v 0.718588 4.426984 -0.112971
v 1.386460 3.823055 -0.080186
v 0.683003 3.808157 0.149098
v 0.683003 4.367390 -0.130601
v 1.386460 4.397187 -0.108574
v 0.015131 3.808157 0.316253
v -0.652741 3.808157 0.199743
v -0.652740 2.689691 0.199742
v -0.652741 3.248924 0.323107
v 0.015131 3.248924 0.469277
v 0.015131 2.689691 0.316252
v 0.683003 2.689691 0.149098
v 0.683003 3.248924 0.255822
v 0.683003 2.130458 -0.130559
v -0.652740 2.130458 -0.127538
v -1.320612 3.808157 -0.058061
vt 0.933318 0.017804
vt 0.935197 0.029213
vt 0.929375 0.008898
vt 0.923630 0.044746
vt 0.925028 0.044746
vt 0.925028 0.053605
vt 0.923630 0.053605
vt 0.946055 0.044662
vt 0.943039 0.053596
vt 0.942586 0.053605
vt 0.923630 0.031115
vt 0.923630 0.020066
vt 0.925028 0.020066
vt 0.925028 0.031115
vt 0.924329 0.008962
vt 0.947056 0.019854
vt 0.947664 0.019984
vt 0.949268 0.031029
vt 0.948720 0.030951
vt 0.942630 0.008901
vt 0.929224 0.042617
vt 0.927825 0.042617
vt 0.927825 0.031516
vt 0.929224 0.029224
vt 0.928569 0.053599
vt 0.926427 0.033317
vt 0.927825 0.044707
vt 0.927825 0.053605
vt 0.926427 0.053605
vt 0.927825 0.017834
vt 0.939999 0.017804
vt 0.941878 0.029214
vt 0.936056 0.008898
vt 0.926427 0.017822
vt 0.925028 0.017822
vt 0.925028 0.008962
vt 0.926427 0.008962
vt 0.952736 0.044662
vt 0.949720 0.053596
vt 0.949268 0.053605
vt 0.927825 0.008936
vt 0.927825 0.008936
vt 0.929375 0.008898
vt 0.927825 0.053605
vt 0.926427 0.053605
vt 0.925028 0.053605
vt 0.923630 0.053605
vt 0.926427 0.031453
vt 0.926427 0.042501
vt 0.925028 0.042501
vt 0.925728 0.053605
vt 0.953738 0.019854
vt 0.954345 0.019984
vt 0.955949 0.031029
vt 0.955401 0.030951
vt 0.949311 0.008901
vt 0.926427 0.019924
vt 0.927825 0.019924
vt 0.927825 0.031025
vt 0.927126 0.008936
vt 0.925028 0.008962
vt 0.926427 0.008962
vt 0.943039 0.053596
vt 0.942586 0.053605
vt 0.949720 0.053596
vt 0.949268 0.053605
vt 0.042662 0.149477
vt 0.042893 0.132148
vt 0.062989 0.131998
vt 0.063021 0.149629
vt 0.042896 0.098380
vt 0.062994 0.098526
vt 0.062974 0.115264
vt 0.043004 0.115263
vt 0.083084 0.115268
vt 0.083175 0.098328
vt 0.103640 0.098203
vt 0.103644 0.115272
vt 0.063027 0.080938
vt 0.083392 0.081052
vt 0.103735 0.081168
vt 0.022452 0.098192
vt 0.022447 0.115260
vt 0.022344 0.081169
vt 0.042663 0.081033
vt 0.022344 0.149358
vt 0.022446 0.132327
vt 0.083167 0.132209
vt 0.083382 0.149486
vt 0.103634 0.132340
vt 0.083167 0.132209
vt 0.083382 0.149486
vt 0.103724 0.149380
vt 0.062989 0.131998
vt 0.042893 0.132148
vt 0.042896 0.098380
vt 0.043004 0.115263
vt 0.062974 0.115264
vt 0.062994 0.098526
vt 0.083175 0.098328
vt 0.083084 0.115268
vt 0.083392 0.081052
vt 0.042663 0.081033
vt 0.022446 0.132327
vn -0.9817 -0.1101 0.1552
vn 0.0141 -0.6303 0.7762
vn 0.9639 0.1797 -0.1965
vn -0.5720 -0.3739 0.7301
vn -0.5370 -0.2767 0.7969
vn 0.4129 -0.5267 0.7430
vn 1.0000 0.0006 0.0002
vn 0.9999 0.0102 0.0063
vn 1.0000 -0.0000 0.0000
vn 0.9999 0.0107 0.0067
vn -0.2517 0.4403 -0.8619
vn -0.3382 0.3193 -0.8853
vn 0.5010 0.5396 -0.6766
vn -0.7707 0.3599 -0.5258
vn -1.0000 0.0000 0.0000
vn -0.0694 -0.6318 0.7720
vn 0.9639 0.1798 -0.1965
vn -0.5399 0.0000 -0.8417
vn -0.5663 0.0000 -0.8242
vn -0.2433 0.0000 0.9699
vn -0.5721 -0.3738 0.7301
vn -0.5371 -0.2767 0.7969
vn 0.4128 -0.5267 0.7431
vn 1.0000 0.0005 0.0002
vn -0.2516 0.4403 -0.8619
vn -0.3381 0.3194 -0.8853
vn -0.7706 0.3599 -0.5259
vn 0.2999 0.5916 -0.7484
vn -0.4539 0.0000 0.8911
vn 0.9786 0.0000 -0.2056
vn -0.0729 0.5862 0.8069
vn -0.1875 -0.2356 0.9536
vn 0.4048 -0.1200 0.9065
vn 0.2674 -0.2180 0.9386
vn 0.1049 -0.5413 0.8343
vn 0.1887 -0.2600 0.9470
vn -0.4276 -0.1434 0.8925
vn -0.1984 -0.3153 0.9280
vn -0.0694 -0.5680 0.8201
vn -0.1837 0.3580 0.9155
vn -0.4126 0.1224 0.9026
vn -0.1875 0.2356 0.9536
vn 0.0954 0.5494 0.8301
vn 0.2674 0.2180 0.9386
vn 0.4048 0.1200 0.9065
vn -0.1326 -0.2600 -0.9565
vn 0.0747 -0.5266 -0.8468
vn 0.1875 0.2356 -0.9536
vn -0.3452 0.1217 -0.9306
vn -0.2674 0.2180 -0.9386
vn -0.1416 0.5092 -0.8489
vn -0.1305 0.2572 -0.9575
vn 0.3648 0.1462 -0.9195
vn 0.1352 0.3133 -0.9400
vn 0.1068 0.5367 -0.8370
vn 0.1840 -0.2869 -0.9401
vn 0.3792 -0.1675 -0.9101
vn 0.1875 -0.2356 -0.9536
vn -0.1318 -0.5179 -0.8452
vn -0.2674 -0.2180 -0.9386
vn -0.3452 -0.1217 -0.9306
vn 0.0185 0.2734 -0.9617
vn 0.1911 0.2626 0.9458
vn 0.0235 -0.2707 -0.9624
vn -0.3310 -0.1148 -0.9366
vn -0.0293 -0.2699 -0.9624
vn -0.3235 -0.0933 -0.9416
vn 0.0359 -0.3055 -0.9515
vn -0.0402 -0.3055 -0.9513
vn -0.0196 0.2944 -0.9555
usemtl Texture
s 1
f 1/1/1 2/2/1 3/3/1
f 4/4/2 1/5/2 3/6/2 5/7/2
f 4/8/3 5/9/3 6/10/3
f 7/11/4 8/12/4 9/13/4 2/14/4
f 10/15/5 9/13/5 8/12/5
f 4/4/6 7/11/6 2/14/6 1/5/6
f 11/16/7 8/17/8 7/18/9 12/19/9
f 10/20/10 8/17/8 11/16/7
f 9/21/11 11/22/11 12/23/11 2/24/11
f 10/25/12 11/22/12 9/21/12
f 13/26/13 14/27/13 15/28/13 16/29/13
f 12/23/14 4/30/14 2/24/14
f 17/31/15 13/32/15 16/33/15
f 14/34/16 17/35/16 16/36/16 18/37/16
f 14/38/17 18/39/17 15/40/17
f 3/3/18 6/41/18 19/42/18 20/43/18
f 16/29/19 15/28/19 21/44/19 22/45/19
f 5/7/20 3/6/20 20/46/20 23/47/20
f 24/48/21 25/49/21 26/50/21 13/26/21
f 27/51/22 26/50/22 25/49/22
f 14/34/23 24/48/23 13/26/23 17/35/23
f 28/52/24 25/53/8 24/54/9 29/55/9
f 27/56/10 25/53/8 28/52/24
f 26/57/25 28/58/25 29/59/25 13/26/25
f 27/60/26 28/58/26 26/57/26
f 29/59/27 14/27/27 13/26/27
f 2/24/28 4/30/28 6/41/28 3/3/28
f 18/37/29 16/36/29 22/61/29 30/62/29
f 12/19/9 7/18/9 4/8/9
f 6/10/30 5/9/30 23/63/30 19/64/30
f 15/40/30 18/39/30 30/65/30 21/66/30
f 29/55/9 24/54/9 14/38/9
f 31/67/31 32/68/31 33/69/31 34/70/31
f 35/71/32 36/72/32 37/73/32 38/74/32
f 39/75/33 40/76/33 41/77/33 42/78/33
f 37/73/34 36/72/34 40/76/34 39/75/34
f 36/72/35 43/79/35 44/80/35 40/76/35
f 40/76/36 44/80/36 45/81/36 41/77/36
f 46/82/37 35/71/37 38/74/37 47/83/37
f 48/84/38 49/85/38 35/71/38 46/82/38
f 49/85/39 43/79/39 36/72/39 35/71/39
f 50/86/40 51/87/40 32/68/40 31/67/40
f 51/87/41 47/83/41 38/74/41 32/68/41
f 32/68/42 38/74/42 37/73/42 33/69/42
f 33/69/43 52/88/43 53/89/43 34/70/43
f 37/73/44 39/75/44 52/88/44 33/69/44
f 39/75/45 42/78/45 54/90/45 52/88/45
f 55/91/46 56/92/46 57/93/46 54/90/46
f 58/94/47 59/95/47 31/67/47 34/70/47
f 60/96/48 61/97/48 62/98/48 63/99/48
f 41/77/49 64/100/49 65/101/49 42/78/49
f 64/100/50 63/99/50 62/98/50 65/101/50
f 66/102/51 43/79/51 63/99/51 64/100/51
f 45/81/52 66/102/52 64/100/52 41/77/52
f 46/82/53 47/83/53 61/97/53 60/96/53
f 48/84/54 46/82/54 60/96/54 67/103/54
f 67/103/55 60/96/55 63/99/55 43/79/55
f 59/95/56 68/104/56 50/86/56 31/67/56
f 61/97/57 47/83/57 68/104/57 59/95/57
f 62/98/58 61/97/58 59/95/58 58/94/58
f 58/94/59 34/70/59 56/92/59 55/91/59
f 62/98/60 58/94/60 55/91/60 65/101/60
f 65/101/61 55/91/61 54/90/61 42/78/61
f 57/93/62 56/92/62 53/89/62
f 52/88/63 54/90/63 57/93/63 53/89/63
f 44/80/64 66/102/64 45/81/64
f 50/86/65 68/104/65 51/87/65
f 48/84/66 67/103/66 49/85/66
f 51/87/67 68/104/67 47/83/67
f 49/85/68 67/103/68 43/79/68
f 44/80/69 43/79/69 66/102/69
f 53/89/70 56/92/70 34/70/70
o Raft_Cylinder
v -1.950057 0.370609 -0.468374
v 1.866100 0.370609 -0.468374
v 1.866100 0.267691 -0.468374
v -1.950057 0.267691 -0.468374
v 1.866100 0.370609 0.307228
v 1.866100 0.267691 0.307228
v -1.950057 0.370609 0.307228
v -1.950057 0.267691 0.307228
v 1.866100 0.370639 -0.492183
v 1.866100 0.370609 -1.249891
v -1.950057 0.370609 -1.249891
v -1.950057 0.370639 -0.492183
v -1.950057 0.267722 -0.492183
v -1.950057 0.267691 -1.249891
v 1.866100 0.267691 -1.249891
v 1.866100 0.267722 -0.492183
v -1.950057 0.267691 -1.265312
v -1.950057 0.370609 -1.265312
v -1.950057 0.370609 -2.100254
v -1.950057 0.267691 -2.100254
v 1.866100 0.370609 -2.100254
v 1.866100 0.267691 -2.100254
v 1.866100 0.370609 -1.265312
v 1.866100 0.267691 -1.265312
v 1.324270 0.229751 2.087543
v 1.228487 0.416690 2.087543
v 1.420052 0.416690 2.087543
v 1.324270 0.229751 -2.328095
v 1.420052 0.416690 -2.328095
v 1.228487 0.416690 -2.328095
v -1.312522 0.150884 2.103421
v -1.408305 0.416690 2.103422
v -1.216740 0.416690 2.103422
v -1.312522 0.150884 -2.343974
v -1.216740 0.416690 -2.343974
v -1.408305 0.416690 -2.343974
v 1.329920 0.341428 -2.552498
v 1.329920 0.341428 2.293930
v 1.624400 0.241426 2.293930
v 1.624400 0.241426 -2.552498
v 1.746378 -0.000000 2.293930
v 1.746378 0.000000 -2.552498
v 1.624400 -0.241426 2.293930
v 1.624400 -0.241426 -2.552498
v 1.329920 -0.341428 2.293930
v 1.329920 -0.341428 -2.552498
v 1.035440 -0.241426 2.293930
v 1.035440 -0.241426 -2.552498
v 0.913463 -0.000000 2.293930
v 0.913463 0.000000 -2.552498
v 1.035440 0.241426 2.293930
v 1.035440 0.241426 -2.552498
v -1.329920 0.341428 -2.552498
v -1.624400 0.241426 -2.552498
v -1.624400 0.241426 2.293930
v -1.329920 0.341428 2.293930
v -1.746378 0.000000 -2.552498
v -1.746378 -0.000000 2.293930
v -1.624400 -0.241426 -2.552498
v -1.624400 -0.241426 2.293930
v -1.329920 -0.341428 -2.552498
v -1.329920 -0.341428 2.293930
v -1.035440 -0.241426 -2.552498
v -1.035440 -0.241426 2.293930
v -0.913463 0.000000 -2.552498
v -0.913463 -0.000000 2.293930
v -1.035440 0.241426 -2.552498
v -1.035440 0.241426 2.293930
v -1.950057 0.267691 1.125873
v -1.950057 0.370609 1.125873
v -1.950057 0.370609 0.350270
v -1.950057 0.267691 0.350270
v 1.866100 0.370609 0.350270
v 1.866100 0.267691 0.350270
v 1.866100 0.370609 1.125873
v 1.866100 0.267691 1.125873
v -1.950057 0.267691 1.962163
v -1.950057 0.370609 1.962163
v -1.950057 0.370609 1.186561
v -1.950057 0.267691 1.186561
v 1.866100 0.370609 1.186561
v 1.866100 0.267691 1.186561
v 1.866100 0.370609 1.962163
v 1.866100 0.267691 1.962163
vt 0.025174 0.215660
vt 0.025174 0.304035
vt 0.023040 0.304035
vt 0.023040 0.215660
vt 0.061188 0.789879
vt 0.061188 0.785809
vt 0.063322 0.785809
vt 0.063322 0.789879
vt 0.044379 0.304035
vt 0.044379 0.215660
vt 0.046513 0.215660
vt 0.046513 0.304035
vt 0.079309 0.215660
vt 0.082953 0.215660
vt 0.082953 0.304035
vt 0.079309 0.304035
vt 0.064733 0.304035
vt 0.061089 0.304035
vt 0.061089 0.215660
vt 0.064733 0.215660
vt 0.064733 0.304035
vt 0.061089 0.304035
vt 0.061089 0.215660
vt 0.064733 0.215660
vt 0.079309 0.215660
vt 0.082953 0.215660
vt 0.082953 0.304035
vt 0.079309 0.304035
vt 0.044379 0.304035
vt 0.044379 0.215660
vt 0.046513 0.215660
vt 0.046513 0.304035
vt 0.063322 0.789879
vt 0.061188 0.789879
vt 0.061188 0.785809
vt 0.063322 0.785809
vt 0.025174 0.215660
vt 0.025174 0.304035
vt 0.023040 0.304035
vt 0.023040 0.215660
vt 0.072744 0.789879
vt 0.072744 0.785809
vt 0.074878 0.785809
vt 0.074878 0.789879
vt 0.074878 0.789879
vt 0.072744 0.789879
vt 0.072744 0.785809
vt 0.074878 0.785809
vt 0.025174 0.215660
vt 0.025174 0.304035
vt 0.023040 0.304035
vt 0.023040 0.215660
vt 0.061188 0.789879
vt 0.061188 0.785809
vt 0.063322 0.785809
vt 0.063322 0.789879
vt 0.044379 0.304035
vt 0.044379 0.215660
vt 0.046513 0.215660
vt 0.046513 0.304035
vt 0.079309 0.215660
vt 0.082953 0.215660
vt 0.082953 0.304035
vt 0.079309 0.304035
vt 0.064733 0.304035
vt 0.061089 0.304035
vt 0.061089 0.215660
vt 0.064733 0.215660
vt 0.237329 0.921976
vt 0.239711 0.925127
vt 0.233285 0.926112
vt 0.235666 0.909001
vt 0.235161 0.921813
vt 0.233285 0.905850
vt 0.239711 0.904865
vt 0.237835 0.909164
vt 0.237468 0.899841
vt 0.240202 0.903767
vt 0.233285 0.904852
vt 0.236019 0.887735
vt 0.235426 0.899664
vt 0.233285 0.883809
vt 0.240202 0.882724
vt 0.238062 0.887912
vt 0.030582 0.374332
vt 0.125668 0.374332
vt 0.125668 0.469418
vt 0.030582 0.469418
vt 0.030582 0.374332
vt 0.125668 0.374332
vt 0.125668 0.469418
vt 0.030582 0.469418
vt 0.030582 0.374332
vt 0.125668 0.374332
vt 0.125668 0.469418
vt 0.030582 0.469418
vt 0.030582 0.374332
vt 0.125668 0.374332
vt 0.125668 0.469418
vt 0.030582 0.469418
vt 0.030582 0.374332
vt 0.125668 0.374332
vt 0.125668 0.469418
vt 0.030582 0.469418
vt 0.030582 0.374332
vt 0.125668 0.374332
vt 0.125668 0.469418
vt 0.030582 0.469418
vt 0.030582 0.374332
vt 0.125668 0.374332
vt 0.125668 0.469418
vt 0.030582 0.469418
vt 0.030582 0.374332
vt 0.125668 0.374332
vt 0.125668 0.469418
vt 0.030582 0.469418
vt 0.030582 0.374332
vt 0.125668 0.374332
vt 0.125668 0.469418
vt 0.030582 0.469418
vt 0.030582 0.374332
vt 0.125668 0.374332
vt 0.125668 0.469418
vt 0.030582 0.469418
vt 0.030582 0.374332
vt 0.125668 0.374332
vt 0.125668 0.469418
vt 0.030582 0.469418
vt 0.030582 0.374332
vt 0.125668 0.374332
vt 0.125668 0.469418
vt 0.030582 0.469418
vt 0.030582 0.374332
vt 0.125668 0.374332
vt 0.125668 0.469418
vt 0.030582 0.469418
vt 0.030582 0.374332
vt 0.125668 0.374332
vt 0.125668 0.469418
vt 0.030582 0.469418
vt 0.030582 0.374332
vt 0.125668 0.374332
vt 0.125668 0.469418
vt 0.030582 0.469418
vt 0.030582 0.374332
vt 0.125668 0.374332
vt 0.125668 0.469418
vt 0.030582 0.469418
vt 0.074878 0.789879
vt 0.072744 0.789879
vt 0.072744 0.785809
vt 0.074878 0.785809
vt 0.025174 0.215660
vt 0.025174 0.304035
vt 0.023040 0.304035
vt 0.023040 0.215660
vt 0.061188 0.789879
vt 0.061188 0.785809
vt 0.063322 0.785809
vt 0.063322 0.789879
vt 0.044379 0.304035
vt 0.044379 0.215660
vt 0.046513 0.215660
vt 0.046513 0.304035
vt 0.079309 0.215660
vt 0.082953 0.215660
vt 0.082953 0.304035
vt 0.079309 0.304035
vt 0.064733 0.304035
vt 0.061089 0.304035
vt 0.061089 0.215660
vt 0.064733 0.215660
vt 0.074878 0.789879
vt 0.072744 0.789879
vt 0.072744 0.785809
vt 0.074878 0.785809
vt 0.025174 0.215660
vt 0.025174 0.304035
vt 0.023040 0.304035
vt 0.023040 0.215660
vt 0.061188 0.789879
vt 0.061188 0.785809
vt 0.063322 0.785809
vt 0.063322 0.789879
vt 0.044379 0.304035
vt 0.044379 0.215660
vt 0.046513 0.215660
vt 0.046513 0.304035
vt 0.079309 0.215660
vt 0.082953 0.215660
vt 0.082953 0.304035
vt 0.079309 0.304035
vt 0.064733 0.304035
vt 0.061089 0.304035
vt 0.061089 0.215660
vt 0.064733 0.215660
vt 0.074878 0.789879
vt 0.072744 0.789879
vt 0.072744 0.785809
vt 0.074878 0.785809
vn 0.0000 0.0000 -1.0000
vn 1.0000 0.0000 0.0000
vn 0.0000 -0.0000 1.0000
vn 0.0000 -1.0000 -0.0000
vn 0.0000 1.0000 0.0000
vn -1.0000 0.0000 0.0000
vn -0.8900 0.4560 0.0000
vn 0.8900 0.4560 0.0000
vn -0.9408 0.3390 0.0000
vn 0.9408 0.3390 0.0000
vn 0.3216 0.9469 0.0000
vn 0.8925 0.4510 0.0000
vn 0.8925 -0.4510 -0.0000
vn 0.3216 -0.9469 -0.0000
vn -0.3216 -0.9469 -0.0000
vn -0.8926 -0.4509 -0.0000
vn -0.8926 0.4509 0.0000
vn -0.3216 0.9469 0.0000
vn -0.8925 0.4510 0.0000
vn -0.8925 -0.4510 -0.0000
vn 0.8926 -0.4509 -0.0000
vn 0.8926 0.4509 0.0000
usemtl Texture
s 1
f 69/105/71 70/106/71 71/107/71 72/108/71
f 70/109/72 73/110/72 74/111/72 71/112/72
f 73/113/73 75/114/73 76/115/73 74/116/73
f 76/117/74 72/118/74 71/119/74 74/120/74
f 73/121/75 70/122/75 69/123/75 75/124/75
f 77/125/75 78/126/75 79/127/75 80/128/75
f 81/129/74 82/130/74 83/131/74 84/132/74
f 77/133/73 80/134/73 81/135/73 84/136/73
f 83/137/72 78/138/72 77/139/72 84/140/72
f 79/141/71 78/142/71 83/143/71 82/144/71
f 80/145/76 79/146/76 82/147/76 81/148/76
f 85/149/76 86/150/76 87/151/76 88/152/76
f 87/153/71 89/154/71 90/155/71 88/156/71
f 89/157/72 91/158/72 92/159/72 90/160/72
f 91/161/73 86/162/73 85/163/73 92/164/73
f 85/165/74 88/166/74 90/167/74 92/168/74
f 91/169/75 89/170/75 87/171/75 86/172/75
f 93/173/71 94/174/71 95/175/71
f 96/176/77 93/177/77 95/175/77 97/178/77
f 96/176/73 97/178/73 98/179/73
f 94/174/78 93/173/78 96/180/78 98/179/78
f 99/181/71 100/182/71 101/183/71
f 102/184/79 99/185/79 101/183/79 103/186/79
f 102/184/73 103/186/73 104/187/73
f 100/182/80 99/181/80 102/188/80 104/187/80
f 105/189/81 106/190/81 107/191/81 108/192/81
f 108/193/82 107/194/82 109/195/82 110/196/82
f 110/197/83 109/198/83 111/199/83 112/200/83
f 112/201/84 111/202/84 113/203/84 114/204/84
f 114/205/85 113/206/85 115/207/85 116/208/85
f 116/209/86 115/210/86 117/211/86 118/212/86
f 118/213/87 117/214/87 119/215/87 120/216/87
f 120/217/88 119/218/88 106/219/88 105/220/88
f 111/199/73 109/198/73 106/190/73
f 121/221/88 122/222/88 123/223/88 124/224/88
f 122/225/89 125/226/89 126/227/89 123/228/89
f 118/213/71 120/216/71 114/204/71
f 125/229/90 127/230/90 128/231/90 126/232/90
f 127/233/85 129/234/85 130/235/85 128/236/85
f 129/237/84 131/238/84 132/239/84 130/240/84
f 131/241/91 133/242/91 134/243/91 132/244/91
f 133/245/92 135/246/92 136/247/92 134/248/92
f 135/249/81 121/250/81 124/251/81 136/252/81
f 132/244/73 134/243/73 124/251/73
f 137/253/76 138/254/76 139/255/76 140/256/76
f 125/226/71 122/225/71 121/221/71
f 139/257/71 141/258/71 142/259/71 140/260/71
f 141/261/72 143/262/72 144/263/72 142/264/72
f 143/265/73 138/266/73 137/267/73 144/268/73
f 137/269/74 140/270/74 142/271/74 144/272/74
f 143/273/75 141/274/75 139/275/75 138/276/75
f 145/277/76 146/278/76 147/279/76 148/280/76
f 147/281/71 149/282/71 150/283/71 148/284/71
f 149/285/72 151/286/72 152/287/72 150/288/72
f 151/289/73 146/290/73 145/291/73 152/292/73
f 145/293/74 148/294/74 150/295/74 152/296/74
f 151/297/75 149/298/75 147/299/75 146/300/75
f 131/238/71 129/237/71 121/221/71
f 127/230/71 125/229/71 121/221/71
f 133/242/71 131/241/71 121/221/71
f 129/234/71 127/233/71 121/221/71
f 135/246/71 133/245/71 121/221/71
f 108/193/71 110/196/71 114/204/71
f 120/217/71 105/220/71 114/204/71
f 105/189/71 108/192/71 114/204/71
f 110/197/71 112/200/71 114/204/71
f 116/209/71 118/212/71 114/204/71
f 115/207/73 113/206/73 106/190/73
f 128/236/73 130/235/73 124/251/73
f 134/248/73 136/247/73 124/251/73
f 123/228/73 126/227/73 124/251/73
f 130/240/73 132/239/73 124/251/73
f 126/232/73 128/231/73 124/251/73
f 109/195/73 107/194/73 106/190/73
f 119/215/73 117/214/73 106/190/73
f 113/203/73 111/202/73 106/190/73
f 117/211/73 115/210/73 106/190/73
f 76/301/76 75/302/76 69/303/76 72/304/76
f 94/174/74 98/179/74 97/178/74 95/175/74
f 100/182/74 104/187/74 103/186/74 101/183/74
o Raft_Cylinder.001
v 0.117718 0.297660 -0.318310
v -0.000032 0.297569 -0.368505
v -0.002397 4.541821 -0.307997
v 0.051221 4.541821 -0.285788
v 0.164068 0.297670 -0.202983
v 0.073430 4.541821 -0.232170
v 0.051221 4.541821 -0.178552
v 0.117718 0.297660 -0.087656
v -0.002397 4.541821 -0.156343
v -0.000032 0.297569 -0.037462
v -0.117781 0.297660 -0.087656
v -0.056015 4.541821 -0.178552
v -0.164131 0.297670 -0.202983
v -0.078224 4.541821 -0.232170
v -0.056015 4.541821 -0.285788
v -0.117781 0.297660 -0.318310
v 1.442912 4.425447 -0.099354
v 1.442912 4.397128 -0.087580
v -1.417682 4.411288 -0.093467
v 1.442912 2.084093 -0.099355
v 1.442912 2.055774 -0.087581
v -1.417682 2.069933 -0.093468
vt 0.040807 0.568151
vt 0.099818 0.568151
vt 0.099818 0.627162
vt 0.040807 0.627162
vt 0.040807 0.568151
vt 0.099818 0.568151
vt 0.099818 0.627162
vt 0.040807 0.627162
vt 0.099818 0.568151
vt 0.099818 0.627162
vt 0.040807 0.627162
vt 0.040807 0.568151
vt 0.099818 0.568151
vt 0.099818 0.627162
vt 0.040807 0.627162
vt 0.040807 0.568151
vt 0.099818 0.568151
vt 0.040807 0.627162
vt 0.040807 0.568151
vt 0.099818 0.568151
vt 0.099818 0.627162
vt 0.040807 0.627162
vt 0.099818 0.568151
vt 0.099818 0.627162
vt 0.040807 0.627162
vt 0.040807 0.568151
vt 0.099818 0.568151
vt 0.040807 0.627162
vt 0.070312 0.627162
vt 0.091176 0.618520
vt 0.099818 0.597656
vt 0.091176 0.576793
vt 0.070312 0.568151
vt 0.049449 0.576793
vt 0.040807 0.597656
vt 0.049449 0.618520
vt 0.070312 0.627162
vt 0.091176 0.618520
vt 0.099818 0.597656
vt 0.091176 0.576793
vt 0.070312 0.568151
vt 0.049449 0.576793
vt 0.040807 0.597656
vt 0.049449 0.618520
vt 0.080148 0.568151
vt 0.099818 0.597656
vt 0.060477 0.627162
vt 0.080148 0.568151
vt 0.099818 0.597656
vt 0.060477 0.627162
vn 0.3892 0.0133 -0.9211
vn 0.9265 0.0173 -0.3760
vn 0.9264 0.0225 0.3759
vn 0.3890 0.0259 0.9209
vn -0.3891 0.0255 0.9209
vn -0.9264 0.0214 0.3759
vn -0.9265 0.0163 -0.3760
vn -0.3892 0.0128 -0.9211
vn 0.0000 1.0000 -0.0000
vn -0.0000 -1.0000 -0.0000
vn 0.0000 0.3839 0.9234
usemtl Texture
s 1
f 153/305/93 154/306/93 155/307/93 156/308/93
f 157/309/94 153/310/94 156/311/94 158/312/94
f 157/309/95 158/313/95 159/314/95 160/315/95
f 160/316/96 159/317/96 161/318/96 162/319/96
f 163/320/97 162/321/97 161/318/97 164/322/97
f 165/323/98 163/324/98 164/325/98 166/326/98
f 165/323/99 166/327/99 167/328/99 168/329/99
f 168/330/100 167/331/100 155/307/100 154/332/100
f 156/333/101 155/334/101 167/335/101 166/336/101 164/337/101 161/338/101 159/339/101 158/340/101
f 154/341/102 153/342/102 157/343/102 160/344/102 162/345/102 163/346/102 165/347/102 168/348/102
f 169/349/103 171/350/103 170/351/103
f 172/352/103 174/353/103 173/354/103
